<?xml version="1.0" encoding="utf-8"?>
<!DOCTYPE svg PUBLIC "-//W3C//DTD SVG 1.0//EN" "http://www.w3.org/TR/2001/REC-SVG-20010904/DTD/svg10.dtd">
<svg version="1.0" xmlns="http://www.w3.org/2000/svg" width="4267px" height="3001px" viewBox="0 0 4267 3001" preserveAspectRatio="xMidYMid meet">
 <g fill="#000000">
  <path d="M766.82 2083.31 c-179.36 -15.80 -340.32 -112.17 -440.10 -263.74 -49.99 -75.98 -80.98 -161.56 -91.78 -253.14 -4 -33.59 -4 -99.98 0 -133.77 29.39 -250.34 218.75 -455.89 466.09 -505.88 58.59 -12 -47.99 -11.20 1444.46 -10.60 l1366.68 0.60 25.79 4.60 c106.58 18.40 195.75 57.79 277.14 122.37 25.99 20.60 69.78 64.38 90.98 90.98 58.19 72.78 100.58 163.76 117.77 252.54 8.40 42.79 10.20 64.58 10 115.37 0 39.39 -0.80 53.59 -4.60 78.98 -22.79 154.16 -103.98 291.93 -227.15 384.91 -81.58 61.59 -167.56 96.98 -277.33 114.37 -19 3 -130.37 3.40 -1379.28 3.80 -768.02 0.20 -1367.28 -0.40 -1378.68 -1.40z m1145.73 -91.78 c3 -1.20 1.40 -1.80 -6 -1.80 -7.40 0 -9 0.60 -6 1.80 2.20 1 5 1.80 6 1.80 1.20 0 3.80 -0.80 6 -1.80z m637.85 0 c3 -1.20 1.40 -1.80 -6 -1.80 -7.40 0 -9 0.60 -6 1.80 2.20 1 5 1.80 6 1.80 1.20 0 3.80 -0.80 6 -1.80z m631.85 0 c3 -1.20 1.40 -1.80 -6 -1.80 -7.40 0 -9 0.60 -6 1.80 2.20 1 5 1.80 6 1.80 1.20 0 3.80 -0.80 6 -1.80z m-2318.66 -1.40 c-13.80 -1.20 -16.20 -4.60 -15.40 -23.79 l0.60 -15.80 11 -0.80 11 -1 -11 -1 -11 -1.20 -0.60 -12.40 c-0.80 -17.40 1.20 -20.60 13.60 -20.60 5.60 0 10 -0.80 10 -2 0 -2.60 -14.20 -2.60 -20.60 -0.20 -8.20 3.20 -9.80 11 -9 43.19 0.60 27.99 0.80 29.59 5.40 33.19 3.40 2.80 7.40 3.80 15 3.40 l10.20 -0.40 -9.20 -0.60z m203.35 -0.60 c-4.20 -0.80 -8.40 -2.60 -9.40 -4.20 -1 -1.60 -1.80 -19.20 -1.80 -39.19 0 -31.79 -0.40 -36.59 -3.20 -36.59 -2.60 0 -3 4.60 -2.40 37.19 0.60 36.19 0.80 37.19 5.40 40.99 2.80 2.40 7.40 3.80 12 3.60 l7.20 -0.20 -7.80 -1.60z m205.75 0.20 c-5.40 -0.80 -11.20 -2 -12.40 -2.80 -1.80 -1.20 -2.60 -7.40 -2.60 -19.60 l0 -17.80 10.60 -0.40 10.40 -0.40 -10.60 -0.60 -10.60 -0.80 0.60 -16.40 0.60 -16.40 11.60 -0.60 c13.40 -0.80 15.60 -4.40 2.40 -4.40 -10.20 0 -18.20 3 -20.20 7.80 -2 4.80 -3.40 46.79 -2 57.19 2.20 13.40 6.60 17 20.80 16.80 l11.40 -0.40 -10 -1.20z m204.95 -37.19 l0 -38.99 7 0 c3.80 0 7 -0.80 7 -2 0 -1.20 -7 -2 -17 -2 -16.40 0 -23.79 3 -10.40 4.40 l6.40 0.60 0.60 38.59 c0.40 32.19 1 38.39 3.40 38.39 2.60 0 3 -6 3 -38.99z m197.95 20 l0 -19 9.40 0 c5.80 0 10.60 1.20 13 3.40 3.40 3 3.60 2.80 3.60 -3 0 -3.40 0.80 -6.60 2 -7.40 6 -3.80 5.80 -25.39 -0.60 -30.59 -1.80 -1.60 -2.20 1.40 -1.80 13.80 0.80 19.80 -0.40 21.79 -14.80 21.79 l-10.80 0 0 -19 0 -19 11.60 -0.20 c14.60 -0.20 8.20 -3.40 -7 -3.60 l-10.60 -0.20 0 40.99 c0 35.19 0.40 40.99 3 40.99 2.40 0 3 -3.40 3 -19z m31.59 6 c-0.40 -7.20 -1.80 -14 -3.20 -15.40 -1.80 -1.80 -2.40 1 -2.40 13 0 12.80 0.60 15.40 3.20 15.40 2.80 0 3.20 -2 2.40 -13z m416.70 -25.39 l0.60 -38.59 6.60 -0.60 c13.20 -1.40 5.80 -4.40 -10.60 -4.40 -10 0 -17 0.80 -17 2 0 1.20 3.20 2 7 2 l7 0 0 38.99 c0 32.99 0.40 38.99 3 38.99 2.40 0 3 -6.20 3.40 -38.39z m213.35 36.99 c-13.80 -1.20 -16.20 -4.60 -15.40 -23.79 l0.60 -15.80 11 -0.80 11 -1 -11 -1 -11 -1.20 -0.60 -12.40 c-0.80 -17.40 1.20 -20.60 13.60 -20.60 5.60 0 10 -0.80 10 -2 0 -2.60 -14.20 -2.60 -20.60 -0.20 -8.20 3.20 -9.80 11 -9 43.19 0.60 27.99 0.80 29.59 5.40 33.19 3.40 2.80 7.40 3.80 15 3.40 l10.20 -0.40 -9.20 -0.60z m409.50 -29.59 l-1 -30.99 6.60 0 c6.20 0 7 0.80 10.80 10.60 5.80 15.40 5 9 -1.60 -11.60 -5.60 -17.20 -6.20 -18 -12 -18.60 l-6.20 -0.60 0 40.99 c0 29.79 0.60 41.19 2.40 41.19 1.60 0 1.80 -8.40 1 -30.99z m44.59 -10 c0 -31.39 -0.60 -40.99 -2.40 -40.99 -2 0 -2.40 7 -2 29.99 l0.60 29.99 -7 0 c-8.20 0 -8 -0.60 -4.40 8.20 1.40 3.80 3.20 8.40 3.80 10.40 0.80 2 3.40 3.40 6.40 3.40 l5 0 0 -40.99z m185.96 0 c0 -35.19 -0.40 -40.99 -3 -40.99 -2.60 0 -3 5.80 -3 40.99 0 35.19 0.40 40.99 3 40.99 2.60 0 3 -5.80 3 -40.99z m405.90 3.40 c0 -26.99 0.60 -38.39 2.40 -40.39 1.40 -1.60 0.40 -1.20 -2 1.20 -6.60 6 -8.20 15.80 -8.40 48.39 0 26.99 0.20 28.39 4 28.39 3.80 0 4 -1.40 4 -37.59z m31.99 4.20 c0 -29.99 -0.40 -34.39 -4 -39.99 -2.20 -3.60 -4.60 -6.60 -5.40 -6.60 -0.80 0 -0.40 1 1 2.40 1.60 1.60 2.40 13.40 2.40 39.99 0 31.99 0.40 37.59 3 37.59 2.60 0 3 -5 3 -33.39z m-1521.24 -6.60 l-0.60 -37.79 4.60 -1 c2.60 -0.60 7.40 -1.40 10.60 -1.80 4.40 -0.60 3.80 -0.80 -2.60 -1.20 -17 -0.40 -21.79 11.60 -20 50.59 0.60 13.20 1.80 20.20 4.20 23.99 2 2.80 3.60 5.20 4 5.20 0.20 0 0.20 -17 -0.20 -37.99z m28.59 31.99 c2.20 -4.40 3 -12.60 3 -32.79 0 -27.19 -1.80 -35.79 -7.60 -38.19 -2.40 -0.80 -2.40 -0.60 -0.60 1.80 1.60 2 2.20 13.20 1.80 38.99 -0.40 20 -0.40 36.19 -0.20 36.19 0.20 0 1.80 -2.60 3.60 -6z m609.26 3.60 c-3.20 -3.20 -3.40 -66.18 0 -72.18 2 -4 2 -4.20 -1 -1.60 -6 4.80 -7.80 16.40 -7.20 42.59 0.60 21.39 1.40 25.79 4.60 29.39 2.20 2.40 4.40 4.20 5 4.20 0.60 0 0 -1 -1.40 -2.40z m31.59 -9.40 c2.60 -9.80 2.60 -10.20 -1.80 -10.20 -3.20 0 -4 1.80 -4.60 10.80 -0.40 8.40 0 10.40 1.80 8.80 1.40 -1.20 3.40 -5.40 4.60 -9.40z m600.26 -26.19 l-0.60 -37.79 4.60 -1 c2.60 -0.60 7.40 -1.40 10.60 -1.80 4.40 -0.60 3.80 -0.80 -2.60 -1.20 -17 -0.40 -21.79 11.60 -20 50.59 0.60 13.20 1.80 20.20 4.20 23.99 2 2.80 3.60 5.20 4 5.20 0.20 0 0.20 -17 -0.20 -37.99z m32.59 23.59 c1.20 -6.20 0.80 -7.60 -1.80 -7.60 -2.40 0 -3.20 2 -3.20 8.60 0 4.80 -0.80 9.60 -2 11 -1 1.40 -0.20 0.80 1.80 -1 2.20 -2 4.60 -7 5.20 -11z m-633.65 -50.39 c-0.80 -3.40 -3 -7.80 -5.20 -9.80 -2.20 -1.80 -3 -2.40 -2 -1 1.20 1.40 2 6.20 2 11 0 7 0.60 8.20 3.20 7.20 2.40 -0.80 2.80 -2.80 2 -7.40z m632.25 4 c1 -5 -3.40 -14.60 -7.20 -16.20 -2.80 -1 -3 -0.80 -0.80 1.20 1.20 1.40 2.40 6.60 2.40 11.40 0 6 0.80 8.40 2.60 8 1.20 -0.60 2.80 -2.60 3 -4.40z m-646.85 -18.60 c-2.60 -0.40 -6.60 -0.40 -9 0 -2.60 0.40 -0.60 0.80 4.40 0.80 5 0 7 -0.40 4.60 -0.80z m852.80 0 c-2 -0.40 -5.60 -0.40 -8 0 -2.60 0.40 -1 0.80 3.40 0.80 4.40 0.20 6.40 -0.20 4.60 -0.80z m-1911.55 -90.98 c2.20 -5.80 4.40 -12.60 5.20 -15 2 -6.60 37.39 -34.59 43.79 -34.59 3 0 10.40 2.40 16.80 5.20 41.59 18.40 92.38 32.19 126.37 34.19 44.79 2.80 99.98 -11.20 156.56 -39.59 8.60 -4.40 18 -7.80 21 -7.80 4.20 0.20 10.20 4.40 23.59 17 17.80 16.80 18.20 17 40.99 24.19 l22.99 7.40 43.79 -1.40 c24.19 -0.60 44.39 -1.60 44.79 -2.20 0.60 -0.40 2.60 -7.80 4.60 -16.20 2.60 -11.40 3 -16.20 1.60 -18.20 -1.20 -1.40 -3.20 -2 -4.20 -1.40 -2 1.20 -93.78 7.40 -94.78 6.20 -17.20 -19.40 -24.79 -30.39 -24.79 -36.59 0 -4.40 1.20 -7.40 3 -8 1.60 -0.80 3 -3 3 -5.40 0 -2.20 7.60 -12.20 18 -23.59 l18.20 -19.60 -6.60 -0.60 c-6.20 -0.60 -6.60 -1 -7.20 -9.40 -0.80 -11.40 3.60 -16.60 13.40 -15.80 6.80 0.60 7.20 1.20 8.20 8.40 l1 7.80 16.80 -18.20 c12 -13.40 18 -18.40 21.39 -18.40 2.60 0 4.80 -1.20 4.80 -2.60 0 -1.40 10.20 -13 22.59 -25.59 35.39 -35.99 58.79 -75.18 75.98 -127.37 15 -45.59 19.80 -77.78 17.20 -116.37 -7 -105.18 -46.19 -191.56 -107.57 -238.14 -17.20 -13 -48.79 -28.39 -70.58 -34.59 -28.19 -8 -48.19 -9.80 -93.98 -8.60 l-41.59 1 0 -6.80 c0 -3.80 0.80 -6.80 1.80 -6.80 3.60 0 21.99 -18.20 28.19 -27.99 3.40 -5.40 7.60 -14 9 -19 8.40 -27.79 -23.39 -57.99 -53.79 -51.19 -14 3.20 -29.39 12.40 -37.99 22.79 -8.40 10.20 -17.20 28.39 -17.20 35.59 0 7 9.20 20.20 24.79 35.79 10.80 10.60 13.20 14 13.20 19.20 l0 6.40 -15.40 1.20 c-65.78 5 -97.78 10.20 -138.37 22.39 -132.37 40.19 -236.54 130.97 -282.13 245.94 -16 39.99 -21.99 81.18 -18.20 122.17 l2.60 26.39 -22.39 82.98 -22.59 82.98 -14 0.60 -14.20 0.60 -3.60 16 c-1.80 8.80 -3.60 17.40 -3.60 19 0 6.20 22.19 29.39 46.79 48.99 24.79 19.60 25.19 20.20 25.19 27.99 -0.20 4.40 -1.40 13.40 -3 20 -5.20 21.20 -14.60 19 81.78 19 l84.98 0 3.80 -10.40z m1324.09 -31.39 c82.18 -16.60 124.97 -58.39 143.37 -140.17 3 -13.60 3.40 -42.79 4 -317.53 l0.80 -302.33 -73.18 0 -72.98 0 -0.40 307.53 c-0.60 295.53 -0.80 307.53 -4.40 314.33 -9.20 17.20 -21.59 25.19 -44.79 27.99 -17.20 2.20 -34.79 1 -48.59 -3.20 -9.80 -3.20 -21 -13.20 -26.99 -24.79 -3.60 -6.80 -3.80 -19.20 -4.40 -314.33 l-0.40 -307.53 -72.98 0 -72.98 0 0 291.53 c0 315.33 0 313.73 10.80 350.92 21.20 72.38 75.58 112.17 166.16 122.17 18.80 2 78.38 -0.80 96.98 -4.60z m477.49 3.80 c40.19 -4.40 66.38 -11.60 93.98 -25.99 53.39 -27.59 79.38 -81.18 83.58 -171.96 4.40 -90.98 -23.99 -150.76 -93.98 -197.75 -17.40 -11.80 -48.59 -28.99 -87.18 -48.19 -67.38 -33.59 -89.38 -52.39 -100.58 -86.58 -3.40 -10.40 -4 -17.40 -4 -43.39 0 -33.79 3 -50.99 11.40 -67.58 10.20 -20 24.39 -26.99 55.19 -27.19 27.59 -0.20 38.99 3.60 53.19 17.80 8.40 8.40 11.20 13 14.60 23.99 3.80 12 4.20 18.40 4.20 61.19 0 44.59 0.20 47.79 3.60 47.79 3.40 0 111.77 -14.80 125.97 -17 l6.40 -1.20 0 -20.80 c0 -27.79 -3.40 -57.79 -9.20 -80.98 -5.60 -22.19 -20.80 -54.19 -33.39 -70.18 -34.19 -42.99 -92.78 -66.18 -167.36 -66.18 -48.59 0 -86.38 7.40 -118.97 23.39 -33.59 16.40 -52.39 35.59 -68.98 69.98 -15.80 32.79 -22.19 65.98 -22.19 115.97 0.20 100.38 33.59 151.36 135.77 206.75 12.20 6.80 32.59 17.60 44.99 24.39 80.58 43.59 105.18 77.78 105.38 145.77 0 31.39 -7 49.59 -25.99 66.58 -14.60 13.20 -28.39 17.80 -52.99 18.20 -32.99 0.40 -51.19 -9.40 -64.58 -34.39 -10.40 -19.60 -12.40 -31.99 -12.40 -81.78 0 -24.59 -0.60 -44.59 -1.60 -44.59 -0.80 0 -32.39 4 -70.38 9 -37.99 5 -69.98 9 -71.38 9 -2 0 -2.60 6.20 -2.60 25.59 0 123.77 56.79 197.15 167.96 217.15 9.40 1.80 20.60 3.40 24.99 3.80 18 1.60 58.39 1.20 76.58 -0.60z m-2446.03 -10.40 c-2.20 -1.20 -4.60 -3.20 -5.40 -4.40 -1 -1.20 -1.60 -0.20 -1.60 2.40 0 3.40 1.20 4.40 5.60 4.40 5 -0.20 5.20 -0.20 1.40 -2.40z m138.97 -120.57 l0 -122.97 47.59 0 c69.38 0 99.58 -5.40 138.37 -24.39 17.80 -8.80 23.59 -13 38.19 -27.59 24.79 -24.59 37.79 -50.19 46.99 -91.98 3.40 -15.20 3.80 -26.59 3.80 -110.97 0 -84.38 -0.40 -95.78 -3.80 -110.97 -9.20 -41.79 -22.19 -67.38 -46.99 -91.98 -14.60 -14.60 -20.40 -18.80 -38.19 -27.59 -11.60 -5.60 -27.79 -12 -35.99 -14.40 -33.79 -9 -48.99 -10 -158.56 -10 -101.78 0 -103.58 0 -101.38 3.80 1 2.20 2 8.60 2 14.60 0 8.80 -0.80 11.20 -5.40 15 -8 7 -25.79 5.60 -30.99 -2.20 -0.80 -1.20 -1.60 153.76 -1.60 344.32 0 201.95 0.80 346.32 1.80 346.32 1 0 2.20 -1.40 3 -3 0.80 -2.20 4.20 -3 13.20 -3 16.20 0 20 3.60 20 19.40 0 10 -0.80 12 -5.40 16 l-5.20 4.60 59.19 0 59.39 0 0 -122.97z m1499.65 64.98 l0 -57.99 -50.99 0 c-62.39 0 -67.18 -1.20 -77.78 -21 l-4.20 -8 -0.60 -305.33 -0.40 -305.53 -29.19 0 -28.99 0 3 4.40 c5.40 7.60 3.80 25.59 -2 25.59 -1.60 0 -2.80 1.20 -2.80 2.80 0 6.40 -18.80 7.20 -26.79 1 -4.60 -3.60 -5.20 -5.60 -5.20 -16 0 -8.80 0.80 -12.20 3 -13 8.40 -3.40 0 -4.80 -26.99 -4.80 l-30.19 0 0.80 311.53 c0.60 308.93 0.60 311.53 4.80 330.32 13.60 60.19 37.99 91.58 82.58 105.78 21.20 6.80 33.19 7.80 114.57 8 l77.38 0.20 0 -57.99z m-2015.93 -166.96 c5.80 -1.80 10.40 -3.80 10.40 -4.60 0 -0.80 -16.60 -18 -36.79 -38.19 -25.99 -25.99 -37.19 -35.79 -38.19 -33.99 -1 1.40 -2.80 7.20 -4 12.80 -6 24.99 12 53.79 39.39 63.19 13 4.60 16.20 4.60 29.19 0.80z m3393.80 -3.20 c5.20 -2.40 11 -5.80 12.80 -7.80 3 -3.20 0.60 -5 -39.59 -29.59 -23.59 -14.60 -44.19 -26.79 -45.99 -27.59 -5.20 -1.80 -6.60 14.80 -2.40 27.59 6.40 20 19 32.59 39.59 39.99 12 4.20 21.20 3.60 35.59 -2.60z m-3355.41 -32.19 c14.60 -32.19 -14.20 -74.18 -50.99 -74.38 -7.80 -0.20 -15.20 1.20 -20.60 3.60 l-8.60 4 37.59 37.59 c20.60 20.60 37.79 37.59 38.19 37.59 0.40 0 2.40 -3.80 4.40 -8.40z m3388.21 -31.79 c-4.60 -14.80 -13.20 -26.19 -24.39 -33.39 -12.80 -8 -23.19 -11 -33.79 -9.80 -8.60 0.80 -30.79 10.40 -30.79 13 0 0.80 20 13.80 44.59 28.79 l44.39 27.19 1.80 -7.60 c1.20 -5.80 0.80 -10.40 -1.80 -18.20z"/>
  <path d="M1333.69 1765.79 c0 -3.20 14 -66.78 30.99 -141.17 17 -74.58 30.99 -135.97 30.99 -136.37 0 -0.20 3.20 -0.60 7 -0.60 l7 0 0 26.79 c0 37.39 2.40 51.99 17 100.18 14.60 48.59 18 56.79 28.79 72.78 8.20 11.80 42.39 52.79 46.19 55.19 1 0.60 2 4.60 2 8.80 l0 7.40 -78.38 6.40 c-96.98 8 -91.58 8 -91.58 0.60z"/>
  <path d="M1665.61 1756.79 c-19.80 -2.40 -22.39 -3.20 -45.19 -15 -13.40 -6.80 -32.59 -18.80 -42.79 -26.39 -10 -7.60 -18.60 -13.80 -18.80 -13.80 -0.20 0 0 3.20 0.40 7 1.20 10.20 -3.80 17 -12.60 17 -8 0 -13 -5.80 -13 -15 0 -9 5 -15 12.40 -15 l6.20 0 -12.40 -12.80 c-7 -7.40 -14.40 -17.60 -17 -23.59 -2.60 -5.80 -10.40 -23.39 -17.20 -38.99 -11 -25.59 -12.80 -28.39 -17.60 -28.99 l-5.40 -0.60 -0.60 -20 c-0.80 -24.79 2.60 -78.38 6.80 -106.77 7.20 -47.79 22.19 -94.38 39.39 -120.97 9.80 -15.20 64.38 -80.38 68.58 -81.98 8.20 -3.20 22.79 -14.60 23.79 -18.60 0.80 -3.60 2.40 -4.60 8 -4.60 3.80 0 7 -0.80 7 -1.60 0 -1 4.40 -4.80 10 -8.60 5.40 -3.80 10 -8.40 10 -10.20 0 -2.40 2.40 -3.80 7.60 -4.80 4 -0.80 8.40 -2.40 9.40 -3.80 1.20 -1.40 9.60 -7.80 19 -14.40 l17 -12.20 -0.60 -9 -0.80 -9 23.79 -7.60 c27.59 -8.60 51.99 -12.20 94.58 -14 28.79 -1 32.39 -0.80 49.99 3.80 39.99 10.40 67.78 24.19 88.98 43.79 l12.20 11.40 19 -4.80 c10.40 -2.80 22.39 -5 26.99 -5 l8.20 0 19.40 44.79 19.60 44.79 13.20 -0.40 13.20 -0.20 1.80 8 c1 4.40 1.20 28.79 0.80 53.99 -1.20 46.79 -3.20 63.39 -12.60 96.58 -3.40 12.20 -3.60 12.40 -10.40 12.40 l-6.80 0 0.80 -9.40 c0.60 -5.40 3.40 -21.20 6.60 -35.59 4.80 -21.99 5.80 -30.79 5.80 -56.99 0.20 -20 -0.80 -34.79 -2.40 -41.39 -2.60 -9.60 -3.40 -10.80 -10 -12.40 -4.20 -1 -16.20 -2.20 -26.99 -2.60 -17 -0.60 -19.40 -0.20 -19.40 2.80 0 1.80 3.20 15.60 7.20 30.99 4 15.20 8.40 32.99 10 39.59 8.80 38.79 -4.20 106.38 -32.39 166.76 -4.80 10.40 -8.80 19 -8.80 19.20 0 1 18.20 7.40 18.80 6.80 2 -2.20 23.59 -47.39 30.19 -63.19 7.80 -18.40 8 -18.60 14.60 -18.60 l7 0 -1 9.60 c-2.20 21.20 -31.59 82.38 -39.59 82.38 -2.20 0 -4 1.40 -4 3 0 1.60 -2.20 3.40 -5 4.20 -3.60 0.80 -7 5 -12 14.60 -14.80 27.99 -35.99 48.59 -92.98 89.78 l-26.99 19.60 0.60 10.20 c0.60 8.20 0 11 -3.40 14.40 -3.60 3.60 -6.60 4.20 -22.59 4.20 -16.60 0 -20 0.80 -34.59 6.80 -48.39 20.80 -100.98 27.39 -162.96 20.40z m198.55 -56.19 c3.40 -2.40 3.20 -2.80 -2.40 -6.80 -6 -4.20 -18.60 -10.20 -21.59 -10.20 -0.80 0 -7.80 4 -15.40 8.80 l-14 8.80 14 7 13.80 7 11 -6 c6 -3.40 12.60 -7.20 14.60 -8.60z m-110.57 -21 c4 -5.80 5 -6 19 -6 13 0 15.40 -0.60 20.80 -5.20 5.20 -4.20 7.80 -5 15.40 -4.40 8.80 0.60 9.40 0.40 18.20 -9.80 4.80 -5.80 10 -10.60 11.60 -10.60 1.40 0 9 -1.40 17 -3.20 10.20 -2.40 13.60 -4 12.20 -5.40 -1.20 -1.20 -2.20 -5.60 -2.20 -9.60 l0 -7.40 16.60 -2.20 c28.99 -4 26.79 -2.80 27.99 -16.20 0.60 -6.40 1.60 -12.60 2.20 -13.80 0.80 -1.20 5.80 -4.60 11.20 -7.60 8.80 -4.80 10 -6.40 10 -12 0 -5.20 1.60 -7.40 10 -13.60 7.20 -5.40 11.20 -10.20 15 -18.60 4 -8.80 7.20 -12.60 14 -16.80 l8.80 -5.40 -1.20 -9.60 -1 -9.60 13.40 -12.60 c10.20 -9.40 13 -13.20 11.20 -15 -3.60 -3.60 -2.60 -16.20 2.60 -27.79 3.60 -8.20 4.60 -13.20 3.80 -19 -0.80 -6.40 -0.20 -9.40 3.20 -14 l4.40 -6 -4.40 -7.40 c-4.40 -7.40 -4.60 -16.40 -0.60 -33.19 1 -5 0.80 -5.20 -7 -4.40 -8.20 0.80 -8.20 0.80 -8.20 -6.20 0 -4 2.40 -13.60 5.20 -21.59 5.60 -15.60 5 -17.80 -5.60 -17.80 -10.20 0 -11.60 -1.60 -11.60 -13.20 l0 -10.80 -6.80 0 c-6.80 0 -7 -0.20 -9.40 -11.20 -2 -9 -3.60 -11.60 -8.40 -14 -3.20 -1.80 -9.80 -6.80 -14.80 -11.40 -7.60 -7 -10 -8.20 -16.60 -7.60 -6.60 0.40 -8 -0.20 -11.20 -5.60 -3 -5 -5 -6.20 -10.20 -6.20 -4.40 0 -7.20 -1.20 -8.60 -3.80 -2.80 -5.40 -14.20 -12 -25.39 -14.80 -7.60 -2 -10.60 -4.20 -16 -11.40 -3.60 -5 -9.20 -11.60 -12.20 -15 l-5.40 -6 -0.60 7.60 c-0.60 6.80 -1.20 7.40 -6.80 7.40 -3.40 0 -13.20 -3.80 -21.99 -8.40 l-16 -8.60 -5.40 6.60 c-5.20 6.20 -6 6.40 -20 6.40 -12.40 0 -15.40 0.80 -21.20 5.20 -5.20 4 -8.60 5 -15.40 4.40 -8.20 -0.60 -9 0 -17.40 9.40 -7.20 8 -10.80 10.40 -19 12.40 -5.60 1.40 -12.60 2.40 -15.40 2.60 -5.40 0 -9.20 4.80 -5.80 7 1.20 0.80 2 4.20 2 7.80 0 7.40 0 7.40 -24.59 10.40 -15.20 1.80 -21 7 -21.79 20.20 -0.40 7.80 -1.40 9.60 -4.60 10.20 -2.20 0.40 -4.80 1.80 -6 3.20 -1 1.40 -4 3.60 -6.40 5 -3.40 1.80 -4.60 4.20 -4.60 9.20 0 5.40 -1.20 7.40 -6.40 10.60 -3.60 2.20 -10.20 4.40 -14.40 5 -9.80 1.60 -11.20 3.60 -11.20 18 0 15.40 -5.20 23.39 -15 23.39 -6.60 0 -6.60 0 -8.80 12.60 -1.20 7 -2.20 14.20 -2.20 16 0 1.60 -4.40 7.20 -9.80 12.40 -9.40 8.80 -9.60 9.60 -8.60 18.20 0.80 7.20 0 10.20 -3.40 14.80 -3.40 4.80 -4.20 8.60 -4.20 21.20 0 13.80 -0.40 15.60 -5 19.20 -2.80 2.20 -5 5 -5 6.20 0 1.40 2.20 5.80 5 9.80 3.80 5.60 5 10 5 18.40 0 10.20 -0.40 11.20 -4.40 11.20 -4.20 0 -4 0.40 2 6.60 5 5.20 6.40 8.20 6.40 14.60 0 6.60 1.20 9.20 7.20 15 6.20 6 7 7.80 6.60 15.60 -0.60 7.40 0.20 9.20 4.80 12.60 4.20 3 5.40 5.60 5.40 11.60 0 4.20 -1 10.20 -2 13.20 -2.80 7 -1.20 8 15.60 9.80 7.20 0.80 14.20 1.80 15.80 2.40 3.60 1.40 3.20 12.60 -0.60 17 -3.80 4 -4 4 12.40 7.60 9.60 2.20 10.60 3 14.80 12.20 4.60 9.80 4.80 9.80 14.20 9.80 7.80 0 10.20 1 13.40 5 3.60 4.60 5.40 5 19.20 5 13.40 0 15.20 0.40 15.20 3.60 0 6 3.80 8 12.80 7 4.80 -0.60 10.60 0 13 1.20 4 2.20 4.20 1.80 4.20 -4.80 0 -6.40 0.40 -7 5.80 -7 8.40 0 12.20 2 12.20 6.20 0 3 1.40 3.80 7.60 3.80 4 0 9.20 1.40 11.20 3 6 4.60 10.40 3.60 15.20 -3z m156.36 -30.39 c8 -6.80 15.40 -13 16.60 -14 1 -0.80 -1.20 -1.60 -5.20 -1.60 -5.40 0 -10.60 2.60 -22.39 11.40 -15 11 -15.20 11.60 -11 14 2.60 1.40 5.20 2.40 6 2.60 0.80 0 8 -5.60 16 -12.40z m117.57 -396.31 c0 -0.60 -3.80 -6.80 -8.20 -14 -7.80 -12.60 -8.60 -13.20 -15.80 -13.20 l-7.60 0 8 14 c7.80 13.60 8.40 14 15.80 14 4.40 0 7.80 -0.40 7.80 -0.80z"/>
  <path d="M1700.20 1631.82 c-3.40 -2.80 -6.60 -3.40 -14.20 -2.60 -8.80 0.80 -10.20 0.20 -14 -4.40 -2.40 -3.20 -4.60 -4.40 -5.40 -3.20 -0.60 1 -4.20 2 -7.80 2 -5.60 0 -7.20 -1 -9.20 -6.20 -1.40 -3.40 -8.80 -11.60 -16.40 -18.40 -7.40 -6.60 -13.60 -13.40 -13.60 -14.80 0 -1.80 -3 -2.60 -9 -2.60 -8.40 0 -8.80 -0.20 -11 -7.40 -5.20 -18.80 -7.80 -42.59 -8.80 -80.98 -1.40 -49.59 0.80 -60.79 17.20 -93.58 10.40 -20.60 10.80 -21 18.20 -21.59 7 -0.60 7.40 -0.40 7.40 5.20 0 3.20 -3 12.40 -6.80 20.60 -8.60 18.60 -16.60 43.99 -19.40 61.79 -2.20 13.20 -2 14.80 3.20 29.39 6.40 18.40 14.80 35.19 24.39 49.79 l7 10.40 9.20 -4 c44.39 -19.60 91.78 -54.59 109.57 -80.98 4.20 -6.40 8.40 -12 9 -12.60 0.80 -0.60 1.80 -3 2.60 -5.40 0.80 -2.60 2.80 -4.60 4.40 -4.60 1.80 0 2.80 -2.20 2.80 -6 0 -3.20 1.80 -10.60 3.80 -16.40 8.80 -24.19 12.60 -66.98 8.20 -90.78 -3 -15.40 -11.80 -33.39 -19.20 -39.19 -3.40 -2.80 -4.80 -5.80 -4.80 -10.60 0 -8 2.60 -9 24.99 -9 8.80 0 17.20 -0.80 18.60 -1.80 2.20 -1.20 2.40 -4.80 1.40 -15 l-1.40 -13.20 18.60 0 18.60 0 6.60 7.60 c3.60 4 6.60 8 6.60 9 0 0.80 3.60 1.40 8.20 1.40 6.40 0 8.40 0.80 9.20 4 0.80 3.20 2.80 4 9.80 4 l8.80 0 0 10 c0 9.40 0.20 10 3.80 8 2.20 -1 6.60 -2 9.80 -2 5.60 0 6 0.40 7.40 11 1.20 10.60 1.60 11 7.20 11 l5.80 0 0 13 c0 13 0 13 5.80 13 5.40 0 5.80 0.80 8.20 11.80 1.40 6.60 2 14.20 1.20 16.80 -0.80 3.40 -0.20 5.40 1.80 6.20 5 1.80 3.80 16.40 -2 23.99 -5.80 7.60 -6.60 15.20 -1.80 15.20 2.80 0 3.20 1.80 2.40 10 -0.60 5.60 -0.20 10.60 0.60 11.20 1 0.60 1.80 4.40 1.80 8.80 0 6 -1.20 8.80 -6.60 13.40 -7.40 6.40 -10.20 11.80 -7.40 13.60 1.20 0.80 2 5.20 2 10 0 9.40 -1.80 11 -12.20 11 -7 0 -7.80 4.20 -1.20 7 3.40 1.60 4.60 4 5 10.80 1 12.20 -3.60 16.80 -15.60 15.80 l-9.20 -0.60 0.80 12.20 c0.80 11.80 0.60 12.20 -6.40 18.40 -5.20 4.60 -9.40 6.40 -14.20 6.40 -3.60 0 -7.40 1 -8 2 -0.60 1.20 -3.20 2 -5.80 2 -2.40 0 -7.40 2.20 -11.20 5 -3.80 2.80 -8.40 5 -10.40 5 -3 0 -3.60 1.80 -3.60 11.20 l0 11.40 -12 -1.40 c-12 -1.40 -12.20 -1.40 -21.59 6.40 -5.20 4.40 -13.20 9 -18 10.20 -5.20 1.40 -10 4.60 -12.60 8 -4.20 5.60 -4.40 5.60 -25.99 5.80 -21 0.20 -22.19 0.60 -30.79 6.40 -9.80 6.80 -18 7.60 -24.39 2.20z m63.79 -35.19 c16.40 -3.40 34.39 -11.80 54.39 -24.99 8 -5.60 15.80 -10 17 -10 1.20 0 2.20 -0.80 2.20 -1.80 0 -0.80 8.60 -10.20 19.20 -20.40 24.39 -23.79 46.59 -51.19 46.79 -57.39 0 -2.80 1.40 -5.20 3.60 -5.60 2.80 -0.80 3.20 -2.80 2.80 -12 l-0.80 -11 8.20 -3.20 8.20 -3.20 -1.20 -10.60 c-1.20 -8.80 -0.80 -11 2 -12 4 -1.60 4.20 -4.80 0.20 -4.80 -2.20 0 -3 -2.60 -3 -10.60 0 -5.80 0.80 -11.40 2 -12.60 3 -3 -3.20 -23.79 -14 -45.79 -9.20 -18.60 -17 -30.39 -33.39 -50.19 l-6.60 -7.80 0 5.60 c0 4 1 5.40 4 5.40 3.20 0 4 1.40 4 6.80 0 4.80 -1 7.20 -3.40 7.80 -2 0.60 -0.20 1 4 1.20 7 0.20 7.40 0.60 7.40 7 0 6.80 -0.20 7 -9.40 7.80 -8 0.60 -7.40 0.80 4 1 l13.40 0.40 0 6.80 c0 6 -0.80 7 -5.40 7.80 -4 0.60 -3 0.80 3 1.20 8.20 0.20 8.40 0.40 8.40 7.20 l0 7 -11.40 0.20 c-13 0.20 -12.60 0.60 4 3.80 11.40 2.20 11.40 2.40 11.40 9.40 l0 7 -16.40 -1.20 -16.60 -1 15.60 5 c15.20 5 15.40 5 15.40 12 0 8.40 -1.20 8.40 -33.79 2.80 -12.60 -2.20 -23.19 -3.60 -23.59 -3.40 -0.20 0.40 11.60 4.40 26.39 9 l26.99 8.40 0 7 c0 9.20 0.20 9.20 -48.79 -2.20 -33.39 -7.60 -40.19 -8.60 -42.39 -6.40 -2.40 2.20 5 5.20 45.19 18.60 l47.99 16 0 6.80 0 6.80 -12.60 -1.20 c-14.40 -1.40 -69.98 -13.60 -83.18 -18.20 -8.20 -3 -9 -3 -12.20 0.20 -3.20 3.40 -1.80 4 28.79 12.80 61.39 17.60 55.19 15.20 55.19 22.99 0 8.40 -0.80 8.40 -29.79 2.80 -11.60 -2.20 -21.20 -3.60 -21.59 -3.20 -0.40 0.20 9.20 5.80 21.39 12.40 21 11.20 21.99 12 21.99 18.20 0 6 -0.60 6.60 -6 6.60 -3.40 0 -24.79 -7.20 -47.59 -16 l-41.39 -15.80 -4.60 4.40 -4.60 4.60 29.19 12.80 c28.99 12.60 28.99 12.80 28.99 19.40 0 6 -0.60 6.60 -6 6.60 -3.20 0 -17.60 -4.40 -31.59 -9.60 l-25.79 -9.60 -6.40 5.20 -6.40 5.40 25.19 22.79 c22.19 20.20 24.99 23.39 24.99 29.19 0 5.80 -0.60 6.60 -5.60 6.60 -3 0 -21.79 -7.20 -41.79 -16 -20 -8.80 -37.79 -16 -39.59 -16 -4.80 0 -3.40 3 13.40 27.19 16.40 23.39 15.60 22.99 39.99 17.80z m-76.38 -15.20 c-11.60 -8.80 -19.60 -13.60 -21.59 -12.80 -2.20 0.80 0 3.40 7.80 9.20 6 4.40 12.20 9.60 13.80 11.80 1.60 2 5.80 4.20 9 4.60 3.40 0.40 6.80 1 7.80 1.20 0.80 0 -6.60 -6.20 -16.80 -14z m174.16 -297.73 c-7 -6.40 -10.20 -8 -16.40 -8 -6.40 0 -7.80 -0.60 -7.80 -4 0 -2.20 -0.60 -4 -1.40 -4 -3.60 0.20 -8.60 5.80 -8.60 9.80 0 3.80 1 4.20 13 4.20 12.60 0 13 0.20 13 5 0 4.60 0.80 5 8.60 5 l8.40 -0.20 -8.80 -7.80z"/>
  <path d="M1639.62 1355.28 c0 -16 63.79 -73.58 81.38 -73.58 6.20 0 6.60 0.40 6.60 6.60 0 5.20 -1.60 7.40 -8.60 12.40 -14.60 10.40 -48.59 40.59 -57.39 50.99 -7 8.40 -9.40 10 -15.20 10 -6.40 0 -6.80 -0.40 -6.80 -6.40z"/>
  <path d="M1737.59 1275.30 c0.20 -13 26.19 -25.79 58.59 -28.99 l13.40 -1.20 0 7 c0 10 -5.60 14.40 -16.40 13 -7 -1 -10.20 -0.20 -17.60 4.40 -11.40 6.80 -25.59 12.20 -32.59 12.20 -4.80 0 -5.40 -0.80 -5.40 -6.40z"/>
  <path d="M1626.02 1219.31 c-3.80 -3.80 -2.80 -16.40 1.80 -22.39 3.20 -4.20 5.80 -5.20 12.80 -5.20 6.80 0 9.40 1 11 3.80 2.80 5.60 2.40 13.40 -1 20.20 -2.80 5.40 -4.20 6 -12.60 6 -5.40 0 -10.60 -1 -12 -2.40z"/>
  <path d="M1785.18 1060.35 c-6.40 -7.40 -8.40 -14 -8.40 -29.59 -0.20 -19.40 4.20 -32.19 13.80 -40.79 8 -7 15.20 -8.60 31.79 -7.80 16.40 0.80 20 5.60 21 28.99 1 24.39 -6.80 41.79 -21.99 49.59 -8.40 4.40 -32.19 4 -36.19 -0.40z"/>
  <path d="M2736.56 1747.39 c-4.40 -3.60 -5.20 -5.60 -5.20 -15.20 0 -15.60 4.80 -20.60 20.40 -20.60 9.80 0 11.80 0.60 15.40 5.20 6.20 8 5.40 26.79 -1 26.79 -1.60 0 -2.80 1.20 -2.80 2.80 0 6.40 -18.80 7.20 -26.79 1z"/>
  <path d="M2595.59 1072.55 c-6.20 -8 -5.40 -26.79 1 -26.79 1.60 0 2.80 -1.20 2.80 -2.80 0 -6.40 18.80 -7.20 26.79 -1 4.40 3.60 5.20 5.60 5.20 15.20 0 15.60 -4.80 20.60 -20.40 20.60 -9.80 0 -11.80 -0.60 -15.40 -5.20z"/>
  <path d="M2873.53 1072.55 c-6.20 -8 -5.40 -26.79 1 -26.79 1.60 0 2.80 -1.20 2.80 -2.80 0 -6.40 18.80 -7.20 26.79 -1 4.40 3.60 5.20 5.60 5.20 15.20 0 15.60 -4.80 20.60 -20.40 20.60 -9.80 0 -11.80 -0.60 -15.40 -5.20z"/>
  <path d="M3074.48 1583.43 c-4.40 -3.60 -5.20 -5.60 -5.20 -15.20 0 -15.60 4.80 -20.60 20.40 -20.60 9.80 0 11.80 0.60 15.40 5.20 6.20 8 5.40 26.79 -1 26.79 -1.60 0 -2.80 1.20 -2.80 2.80 0 6.40 -18.80 7.20 -26.79 1z"/>
  <path d="M3373.41 1256.51 c-6.20 -8 -5.40 -26.79 1 -26.79 1.60 0 2.80 -1.20 2.80 -2.80 0 -6.40 18.80 -7.20 26.79 -1 4.40 3.60 5.20 5.60 5.20 15.20 0 15.60 -4.80 20.60 -20.40 20.60 -9.80 0 -11.80 -0.60 -15.40 -5.20z"/>
  <path d="M983.77 1283.90 l0 -140.17 43.99 0 c50.19 0 58.39 1.80 72.38 15.40 13.80 13.40 13.80 13.60 13.20 127.77 -0.60 99.78 -0.60 101.98 -5 109.77 -5.60 10.40 -11.40 15.80 -23.59 21.39 -9.40 4.20 -13 4.60 -55.39 5.20 l-45.59 0.80 0 -140.17z"/>
  <path d="M2432.23 1751.19 c-9.60 -4.60 -12 -23.19 -4.20 -32.19 4 -4.60 6 -5.40 16 -5.40 15.60 0 19.40 3.80 19.40 19.40 0 10 -0.80 12 -5.40 16 -5.60 5 -18 6 -25.79 2.20z"/>
 </g>
 <g fill="#ffffff">
  <path d="M1891.56 1995.93 c-10.60 -5.20 -12.40 -13.20 -11.60 -49.39 0.40 -24.59 1.20 -31.19 4 -35.59 8.40 -12.60 39.39 -11.20 45.39 2 3.40 7.60 3 69.38 -0.80 76.38 -5 10 -23.79 13.40 -36.99 6.60z m21.59 -43.59 c0.60 -32.39 -0.60 -36.59 -9.60 -33.79 -3.80 1.20 -4 2.80 -4 31.79 0 16.80 0.60 31.19 1.40 31.99 0.80 0.80 3.80 1.20 6.60 0.80 l5 -0.60 0.60 -30.19z"/>
  <path d="M2530.41 1996.73 c-11.40 -5 -12 -6.80 -12.60 -42.99 -0.40 -28.79 0 -34.19 3 -40.19 6.40 -12.60 29.99 -15.60 41.99 -5.20 4.40 3.80 5.40 6.60 6.20 16.80 0.80 12 0.80 12.20 -4.80 13.40 -13.60 3 -12.80 3.40 -12.80 -6.80 0 -10 -2.60 -14.20 -8.40 -14.20 -6 0 -7.60 7 -7.60 34.59 0 28.99 1.20 32.39 10.40 30.99 4 -0.60 4.60 -1.80 5.20 -11 l0.60 -10.60 10 0 9.80 0 -0.20 8.60 c0 13.60 -3.80 21.99 -11.80 25.79 -8.20 4.20 -20.60 4.60 -28.99 0.80z"/>
  <path d="M3161.26 1995.93 c-10.60 -5.20 -12.40 -13.20 -11.60 -49.39 0.40 -24.59 1.20 -31.19 4 -35.59 8.60 -13 39.79 -11.20 45.59 2.60 1.20 3 2 9.80 1.60 15.20 l-0.60 9.80 -8.40 1.20 -8.60 1 0 -9.40 c0 -10.40 -3.40 -14.80 -10 -12.80 -4 1.20 -4 2.40 -3.60 32.59 0.60 30.99 0.60 31.39 5.20 31.99 7 1 10.40 -3 10.40 -12.80 l0 -8.80 9.20 0 9.40 0 -1 13 c-0.60 7.20 -2.40 14.60 -3.80 16.40 -7.20 8.60 -25.79 11 -37.79 5z"/>
  <path d="M841.60 1993.73 c-4.60 -3.80 -4.80 -4.80 -5.40 -39.19 -1 -48.99 0.20 -50.99 28.19 -50.99 l14.40 0 0 8 0 8 -10.40 0 c-12 0 -15.20 3.40 -14.20 14.60 0.60 6.20 0.80 6.40 11.20 7 10.40 0.60 10.40 0.60 10.40 7.40 0 6.80 0 6.80 -10.40 7.40 l-10.60 0.60 -0.60 9.80 c-0.80 12.80 3 17.20 15 17.20 8.60 0 8.60 0 8.60 7 l0 7 -15.80 0 c-12.60 0 -16.80 -0.80 -20.40 -3.80z"/>
  <path d="M1049.55 1993.73 c-4.80 -3.80 -4.80 -4.40 -5.40 -46.99 l-0.60 -43.19 9.60 0 9.60 0 -0.60 36.79 c-0.60 40.59 0 43.19 11.80 43.19 5.40 0 5.80 0.60 5.80 7 l0 7 -12.80 0 c-9.60 0 -14 -1 -17.40 -3.80z"/>
  <path d="M1249.91 1993.73 c-2.20 -2.20 -4.60 -8 -5.20 -13 -1.80 -10.80 -0.20 -64.78 1.80 -69.38 2.40 -5.40 10.60 -7.80 26.19 -7.80 l15 0 0 8 0 7.80 -11.40 0.60 -11.60 0.60 -0.60 10.80 -0.60 10.60 10 -0.60 10.20 -0.80 0 8 0 8 -10 -0.60 -10 -0.80 0 12.20 c0 13.80 2.20 16.20 15.80 16.20 8 0 8.20 0.20 8.20 7 l0 7 -17 0 c-14.20 0 -17.60 -0.60 -20.80 -3.80z"/>
  <path d="M1465.26 1959.14 l-0.60 -38.59 -6.40 -0.60 c-5.60 -0.60 -6.20 -1.40 -7 -8.60 l-0.80 -7.80 23.59 0 23.59 0 0 8 c0 7.80 -0.20 8 -7 8 l-7 0 0 38.99 0 38.99 -9 0 -9 0 -0.40 -38.39z"/>
  <path d="M1663.21 1950.54 l-0.60 -46.99 17 0 c21.79 0 29.79 3.60 33.59 15 3.20 9.20 2 25.19 -2.20 31.79 -2.20 3.40 -2.20 5 0 9.20 1.40 3 2.60 12 2.60 21.59 l0 16.40 -9 0 -9 0 0 -15.60 c0 -16.60 -2.80 -22.39 -10.60 -22.39 -3 0 -3.40 2.60 -3.40 19 l0 19 -9 0 -8.80 0 -0.60 -46.99z m30.19 -7.80 c1.40 -1.60 2.20 -7.20 1.80 -12.60 -0.60 -9.20 -0.80 -9.60 -7 -10.20 l-6.60 -0.60 0 13 c0 12.60 0.20 13.20 4.80 13.20 2.60 0 5.80 -1.20 7 -2.80z"/>
  <path d="M2111.51 1958.54 l0 -38.99 -7 0 c-6.80 0 -7 -0.20 -7 -8 l0 -8 23.59 0 23.59 0 -0.80 7.80 c-0.80 7.20 -1.40 8 -7 8.60 l-6.40 0.60 -0.60 38.59 -0.40 38.39 -9 0 -9 0 0 -38.99z"/>
  <path d="M2315.26 1993.73 c-4.60 -3.80 -4.80 -4.80 -5.40 -39.19 -1 -48.99 0.20 -50.99 28.19 -50.99 l14.40 0 0 8 0 8 -10.40 0 c-12 0 -15.20 3.40 -14.20 14.60 0.60 6.20 0.80 6.40 11.20 7 10.40 0.60 10.40 0.60 10.40 7.40 0 6.80 0 6.80 -10.40 7.40 l-10.60 0.60 -0.60 9.80 c-0.80 12.80 3 17.20 15 17.20 8.60 0 8.60 0 8.60 7 l0 7 -15.80 0 c-12.60 0 -16.80 -0.80 -20.40 -3.80z"/>
  <path d="M2737.36 1950.54 l0 -46.99 12 0 c8 0 12.40 0.80 13 2.60 0.40 1.20 4.80 15 9.80 30.39 l9.20 27.99 -0.80 -30.39 -0.80 -30.59 8.80 0 8.80 0 0 46.99 0 47.19 -11.40 -0.60 -11.20 -0.60 -10.40 -29.59 c-5.80 -16.20 -10.80 -29.99 -11.20 -30.39 -0.40 -0.40 -0.60 13.20 -0.20 30.19 l0.60 30.79 -8 0 -8.20 0 0 -46.99z"/>
  <path d="M2964.91 1950.54 l-0.60 -46.99 9.60 0 9.40 0 0 46.99 0 46.99 -9 0 -8.80 0 -0.60 -46.99z"/>
  <path d="M3369.21 1963.14 c0.20 -38.99 1.60 -48.79 8.80 -54.79 11 -9.60 32.39 -7.60 39.19 3.80 3.60 5.80 4 10.20 4 45.99 l0 39.39 -9 0 -9 0 0 -15 0 -15 -7 0 -7 0 0 15 0 15 -10 0 -10 0 0 -34.39z m33.99 -24.39 c0 -12.80 -0.80 -17.40 -3.20 -19.40 -2.20 -1.80 -4 -2 -6.40 -0.40 -2.60 1.60 -3.60 5.80 -4 19.40 l-0.60 17.20 7.20 0 7 0 0 -16.80z"/>
  <path d="M2315.86 1895.36 c0.60 -4 2.80 -5 16.60 -8.20 20.20 -4.40 21 -4.40 21 0.20 0 3.20 -2.80 4.40 -15.40 7.20 -8.60 1.80 -17.20 3.80 -19.20 4.40 -3 0.80 -3.60 0 -3 -3.60z"/>
  <path d="M1311.09 1812.38 c2.60 -12.80 4.20 -23.99 3.20 -24.79 -0.80 -0.80 -12.80 -10.40 -26.59 -21.39 -13.80 -11.20 -29.79 -25.99 -35.79 -33.39 l-10.80 -13.40 4.80 -23.39 5 -23.39 14 -0.60 14.20 -0.60 22.19 -82.38 22.39 -82.38 -2.20 -16 c-2.80 -19.80 -1.20 -60.39 3.20 -82.58 22.59 -117.17 122.17 -228.15 251.94 -281.13 56.39 -22.99 99.98 -31.99 183.56 -38.39 l15.60 -1.20 -16.20 -17 c-20.40 -21 -25.19 -30.79 -22.19 -44.79 9 -42.19 49.99 -68.38 88.98 -56.99 22.39 6.60 37.59 29.79 34.39 52.99 -2.40 17.60 -16.80 39.99 -33.19 51.99 l-7.20 5.20 41.39 -0.80 c62.19 -1 91.58 4.40 130.77 23.79 35.19 17.40 62.59 41.99 85.18 76.58 32.39 49.39 50.39 108.17 55.79 183.76 3.20 43.79 -2.40 82.78 -18.40 129.37 -17.20 50.39 -40.59 89.18 -74.58 123.57 l-22.19 22.59 -8.80 46.99 c-4.80 25.79 -8.40 47.19 -7.80 47.59 0.40 0.40 11.80 9 25.39 19.20 13.40 10 24.39 19 24.39 19.80 -0.20 3.20 -9.60 40.59 -10.40 41.59 -0.60 0.40 -23.39 1.40 -50.79 2.20 l-49.79 1.20 -22.99 -7.40 c-22.79 -7.20 -23.19 -7.40 -40.99 -23.99 l-18 -16.80 -15 7.60 c-22.19 11.20 -58.59 25.19 -79.38 30.79 -65.78 17.60 -136.57 9.20 -214.55 -25.39 l-11.20 -5 -18.20 15 c-10.20 8.20 -19 16.80 -19.80 19.20 -0.80 2.40 -3 9.20 -5.20 15 l-3.80 10.40 -92.78 0 -92.58 0 5 -23.19z m674.44 -43.79 c16 -0.60 32.79 -1.60 37.39 -2.20 l8.20 -1.20 -19.60 -16.80 c-12.40 -10.40 -21.39 -16.80 -24.39 -16.80 -8.80 0 -60.59 6.60 -62.19 8 -0.80 0.80 4.20 8.20 11 16.60 9.40 11.40 13.60 15 16.60 14.40 2.20 -0.40 17 -1.40 32.99 -2z m-555.87 -10.20 c36.79 -3 67.38 -5.80 67.78 -6.20 0.60 -0.40 -2.60 -4.40 -7 -9.20 -24.59 -25.79 -45.99 -54.39 -52.99 -70.78 -7.40 -17.40 -29.39 -93.38 -31.59 -109.17 -1.20 -8.60 -2.20 -27.99 -2.20 -42.79 0 -15 -0.40 -26.79 -1 -26.19 -0.60 0.40 -14.60 60.19 -30.99 132.77 -16.60 72.38 -30.59 133.57 -31.39 135.57 -1 3.60 -0.20 3.80 10.60 2.60 6.60 -0.60 41.99 -3.60 78.78 -6.60z m334.92 -9.80 c20.60 -4.40 44.79 -12 60.79 -19.20 l12.80 -5.80 -21.20 -10.40 c-11.80 -5.60 -21.39 -10.80 -21.39 -11.40 0 -0.60 9.20 -6.80 20.40 -13.80 l20.40 -12.60 9 2.20 c11.80 3 25.39 10.80 29.39 17 l3.20 5 6.40 -5.60 c3.60 -3.20 17.60 -13.60 31.39 -23.39 48.99 -34.99 73.98 -59.79 87.78 -86.98 4.40 -8.60 7.20 -11.80 11.40 -13 5.20 -1.20 4.80 -1.60 -7.40 -6.40 -7.20 -2.60 -16.20 -5 -20 -5 -3.80 -0.20 -5.40 -0.60 -3.40 -1 4.20 -1 24.19 -41.19 33.19 -67.38 13.80 -39.39 21.59 -81.78 19.40 -105.18 -1.40 -15.20 -10.20 -46.39 -12 -41.99 -0.60 1.60 -3 10 -5.20 18.60 l-4.20 15.40 6 10.80 6.20 10.60 -5.60 7.80 c-4.80 6.60 -5.40 8.80 -3.80 13.40 1.40 4.60 0.60 8.40 -4.60 20.60 -5 11.40 -6 15.60 -4.40 17.20 1.40 1.40 2.40 5.40 2.40 9.20 0 5.80 -2 8.60 -12.80 18.80 -14 12.80 -15.60 19 -4.80 16.60 5.40 -1.20 5.80 -1 3.80 2.40 -2.60 5.20 -17.20 18.20 -23.19 21 -2.80 1.20 -6.80 6.60 -9.80 13.80 -4 8.60 -7.80 13.40 -15.20 18.80 -5.60 4 -10 7.80 -10 8.20 0 0.60 2.40 1.80 5.60 3 l5.40 2 -8 4.80 c-4.40 2.60 -11.60 7 -16.20 9.60 -8.60 5.20 -10.80 10.20 -10.80 24.39 0 7.60 0.80 7.20 -27.39 11.20 -9.20 1.20 -16.60 2.60 -16.60 3.20 0 0.40 2.20 4 5 8.20 3.40 4.80 4.20 7.60 2.60 8.60 -1.20 0.80 -10.20 3 -20 5 -17.80 3.60 -18 3.80 -27.79 15 l-9.80 11.40 -8.20 -1.80 c-7.20 -1.60 -8.80 -1.40 -14.20 3.20 -5 4.40 -7.80 5 -20.20 5 -13.60 0 -14.40 0.20 -20.60 7 -7.40 8.20 -14.40 9 -23.99 3.20 -5.40 -3.20 -7.20 -3.40 -13.40 -1.60 -5.40 1.80 -7 3.20 -6.40 5.60 1 3 0.20 3.20 -5.80 1.80 -3.80 -0.80 -10 -3.40 -13.80 -5.60 -5.80 -3.80 -7.60 -4 -14 -2 -6.40 2 -8 1.80 -11.40 -1.40 -2.20 -2 -4 -5.20 -4 -7.40 0 -3.20 -1.80 -3.60 -15.20 -3.60 -14 0 -15.60 -0.40 -19.20 -5.20 -3.80 -4.60 -5 -5 -13.40 -3.80 l-9.20 1.20 -4.60 -11 -4.80 -11 -19.20 -4.40 -19.20 -4.40 9.80 -8.60 c11.40 -9.80 12.40 -8.80 -15 -12.80 -8.20 -1.20 -15.20 -2.60 -15.80 -3 -0.40 -0.60 1.20 -6 3.60 -12.20 2.20 -6.20 4.20 -11.80 4.20 -12.80 0 -0.80 -5 -5.40 -11 -10 -6 -4.60 -11 -9.20 -11 -10 0 -1 2.80 -2.20 6 -3 3.40 -0.80 6 -2 6 -2.80 0 -0.80 -3.20 -4.40 -7 -8.20 -5.80 -5.60 -7 -8.20 -7 -15 0 -6.40 -1.20 -9.40 -5.20 -13.20 -5.80 -5.40 -10.80 -14 -10.80 -18.80 0 -2.60 1.20 -3 5.60 -2.20 5 1.20 5.40 0.80 5.20 -4.60 0 -3.40 -2.60 -9.60 -5.40 -14 -7 -10.60 -6.80 -17 0.80 -24.59 5.80 -5.80 6 -6.80 5.60 -20.40 -0.60 -12 0 -15.20 3.80 -20.20 4 -5.40 4.20 -6.80 2 -13.60 l-2.40 -7.80 11.20 -10.80 11 -10.80 2.60 -19 c1.60 -10.40 3 -19 3.40 -19 0.40 0 3.40 1.40 6.60 3 5.60 2.80 5.80 2.80 9.80 -2.80 3 -4.20 4.20 -9 4.20 -17.60 0 -14.40 1.40 -16.40 11.20 -18 4.20 -0.60 11 -3 14.80 -5.40 l7 -4.20 -5.60 -1.80 c-3 -1.20 -5.40 -2.60 -5.40 -3.40 0 -0.80 4.60 -4 10 -7.20 5.60 -3 10.60 -7.20 11.20 -9 0.60 -2.20 2.80 -3.40 5.40 -3 3.80 0.40 4.40 -0.80 5 -8 0.40 -4.80 0.20 -8.60 -0.40 -8.60 -0.40 0 -5.60 3.20 -11.40 7 -6 3.80 -11.20 7 -12 7 -2.20 0 -58.79 68.18 -67.18 81.18 -17.20 26.59 -32.19 73.18 -39.39 120.97 -3.80 26.59 -7.60 82.18 -6.80 100.78 0.60 13.40 0.80 14 6 14.60 4.80 0.60 6.40 3.40 17.60 28.99 6.80 15.60 15 33.79 18 40.39 11.20 23.19 53.79 58.99 96.78 81.18 22.59 11.80 25.39 12.60 45.19 15 26.99 3.40 72.38 2.20 92.98 -2.20z m197.95 -24.99 c12.20 -2.20 23.99 -4.60 26.39 -5 3 -0.80 5.20 -3.80 7.40 -10.40 6.60 -20 13.40 -51.19 12.80 -57.99 l-0.60 -7.20 -30.99 33.79 c-17 18.60 -34.99 38.19 -39.99 43.59 l-9 9.80 6 -1.40 c3.40 -0.60 16 -3 27.99 -5.20z m-83.18 -3.80 c3.20 -3.20 3.60 -5.20 2.20 -10.40 -2.60 -8.60 -3 -8.80 -9.40 -4.20 -3 2.20 -11.40 7.20 -18.60 11.20 l-13 7.20 17.60 0 c14.60 0 18 -0.60 21.20 -3.80z m-328.32 -13 c-3.40 -5 -5.40 -4.80 -8.80 0.20 -2 3.20 -2 4.60 0.80 8.60 l3.20 4.60 3.80 -4.60 c3.20 -4 3.40 -5 1 -8.80z m160.56 -29.19 c-3.60 -2.20 -4.40 -1.40 -2.80 2.80 1 2.60 2 2.80 3.60 1.20 1.60 -1.60 1.40 -2.60 -0.80 -4z m248.54 -4.40 c1.20 -1.60 1.40 -4.60 0.60 -6.60 -1.20 -3.60 -1.60 -3.60 -5.60 0.40 -2.60 2.60 -3.60 5.60 -2.80 7.60 1.40 3.80 5 3.20 7.80 -1.40z m-220.75 -55.59 c8.60 0 12.40 -0.80 13.80 -3 1.40 -2.80 2.60 -2.80 9.80 -0.20 8 2.80 8.20 2.80 12.40 -2.80 2.60 -3.60 7.40 -6.80 12.60 -8.20 4.80 -1.20 12.80 -5.80 18 -10.20 9.20 -7.60 10 -8 21.59 -7.20 l12 0.60 0 -9.60 c0 -5.40 -0.60 -9.20 -1.40 -8.60 -1 0.40 -7.60 5 -15.20 10 -36.19 24.39 -73.58 32.59 -113.57 24.99 -7 -1.20 -15.40 -2.60 -18.60 -2.80 -3.60 -0.20 -7.20 -2.40 -9.60 -5.60 -3.80 -5.20 -9.40 -7.80 -6.40 -3 0.80 1.40 0.60 1.60 -1 0.80 -1.20 -0.80 -1.80 -2.20 -1.20 -3.20 0.60 -0.80 -4.80 -6 -12 -11.20 -7.20 -5.20 -12.40 -10.20 -11.60 -10.80 2.40 -2 18.20 -8 21.20 -8 1.40 0 13.20 8.20 26.39 18.20 13.20 10 26.59 20 29.59 22.19 3.80 2.80 0 -4 -12.60 -21.79 l-18.20 -25.59 6.60 -5.40 c3.60 -3.20 7 -5.60 7.80 -5.60 0.60 0 19.60 8.20 41.99 18 l40.79 18 -17 -15.40 c-9.40 -8.60 -22.19 -20.60 -28.59 -26.59 l-11.80 -11.20 11.20 -9.60 11.40 -9.60 27.19 10.20 c15 5.60 27.39 10 27.79 9.60 0.40 -0.20 -12.40 -6.20 -28.39 -13.20 -16 -7 -29.39 -13.60 -29.79 -14.40 -1.60 -2.40 15.40 -20.80 18.40 -20.20 1.60 0.40 21.39 7.80 43.99 16.60 22.59 8.80 41.39 15.60 41.79 15.20 0.40 -0.40 -18.20 -10.80 -41.39 -23.19 -22.99 -12.60 -42.19 -22.39 -42.39 -21.99 -21.20 34.39 -53.99 61.39 -107.97 88.38 l-25.59 12.80 12 11.20 12.20 11.20 -11.20 -5.20 c-9 -4 -12.80 -4.80 -20.40 -3.60 l-9.20 1.40 14.20 12.60 c7.80 7 15.20 15.60 16.60 19 l2.60 6.20 5.80 -5.60 c5.40 -5.20 6 -5.40 7.80 -2 1.20 1.80 4 5.80 6.60 8.60 4.40 5.20 4.60 5.40 10 1.80 5.40 -3.60 5.60 -3.60 13.80 2.40 l8.40 6 8.40 -5.80 c6.80 -4.60 10.40 -5.60 20.40 -5.60z m-114.37 -46.99 c6.20 -2.80 11.80 -5.40 12.20 -6 0.40 -0.40 -2.80 -6 -7.20 -12.40 -10.20 -15.20 -18.60 -31.79 -25.59 -51.59 l-5.80 -16 -0.60 21.79 c-0.80 29.19 6.60 69.18 12.60 69.18 1.60 0 8 -2.20 14.40 -5z m230.35 -11 c5 -3.40 10.20 -5.60 11.60 -5.20 1.40 0.60 3.40 -0.80 4.60 -2.80 2.40 -4.40 8 -5.20 11.40 -1.80 1.60 1.60 4.20 0.40 9.80 -4.80 l7.60 -7 -2.40 -10.40 c-1.40 -5.60 -1.80 -11.20 -1.20 -12.40 0.80 -1.20 5.20 -1.60 10.80 -1 7.80 1 10.20 0.40 13 -2.60 4.20 -4.80 2.80 -9.40 -3.80 -12 -2.60 -1 -5.20 -3.40 -5.60 -5.20 -0.40 -2.40 -5 2 -14.80 14.40 -8 9.80 -22.99 26.19 -33.59 36.59 -10.60 10.20 -19.20 19 -19.20 19.40 0 2 3.60 0.20 11.80 -5.20z m187.16 -22.99 c8.60 -17.60 21.79 -50.99 20.40 -52.19 -0.40 -0.40 -4 7.60 -8.40 17.80 -4.20 10.20 -12.40 28.39 -18.40 40.39 -6 12.20 -9 19.80 -6.80 17 2.40 -2.80 8.20 -13 13.20 -22.99z m-114.17 -56.19 c4.40 -1.60 4 -6.20 -0.80 -8.80 -3.20 -1.80 -4.40 -1.20 -7 4 -3 5.60 -2.80 6 0.80 6 2.20 0 5.20 -0.60 7 -1.20z m-61.79 -2 c-1 -0.40 -20.80 -6.20 -43.79 -12.80 -41.99 -12 -44.99 -12.40 -45.19 -5 0 1.20 18.60 5.80 41.59 10.40 36.39 7.40 53.79 10 47.39 7.40z m-257.74 -48.79 c2.80 -9.40 8.20 -23.79 12 -31.99 9 -19.80 3 -12 -8.40 11 -12.60 25.39 -19.40 53.99 -15.40 64.38 1 2.40 2.20 -1.40 4 -11.40 1.40 -8.20 4.80 -22.59 7.80 -31.99z m317.93 32.79 c1.60 -4 2.80 -7.60 2.40 -7.80 -0.40 -0.40 -3.60 0.60 -7 2 -4.20 1.80 -6.60 4.20 -6.60 6.60 0 9 7.40 8.60 11.20 -0.80z m-80.18 -21.99 c-27.39 -9.20 -50.99 -16.80 -52.19 -16.80 -1.40 0 -3.40 2.80 -4.60 6.20 -3 8.80 -2.80 9.20 2.80 3.80 2.80 -2.60 5 -3.80 5 -2.40 0 3.40 20.60 10.20 52.99 17.40 55.79 12.40 55.39 11.80 -4 -8.20z m94.98 -3.60 c-1.40 -1.80 -3.80 -3.20 -5.20 -3.20 -1.60 0 -2.80 -1 -2.80 -2.20 0 -1 -1 -1.40 -2.20 -0.60 -1.60 1 -1.60 1.80 0.20 2.80 1.60 1 2 4.20 1 10.20 l-1.40 8.80 6.60 -6.40 c5.40 -5.40 6 -6.80 3.80 -9.40z m146.37 -36.19 c3.80 -18.80 4.60 -28.39 4.60 -66.38 0 -27.99 -0.80 -45.19 -2 -46.39 -1.40 -1.40 -5.40 -1.60 -11 -0.60 -9 1.60 -9 1.60 -2.80 3 9.60 1.80 11.80 13.60 11.60 59.39 0 32.19 -0.80 40.19 -5.40 61.99 -7.80 36.19 -7.80 35.99 -3.40 22.99 2.20 -6.60 6 -21.79 8.40 -33.99z m-146.37 16.60 c0 -1 -1.40 -1.60 -3 -1.60 -2 0 -3 2 -3 5.40 0 5.20 0.20 5.20 3 1.40 1.60 -2 3 -4.40 3 -5.20z m-52.19 5.60 c-0.40 -0.40 -18.80 -6.40 -40.79 -13.40 -21.99 -6.80 -41.99 -14.20 -44.19 -16.40 -5.20 -4.40 -5.80 -3.60 -7.80 9.40 -0.60 5.40 -1.80 11.20 -2.40 13 -0.60 1.80 2 0.20 5.40 -3.60 l6.40 -6.80 39.39 9 c37.79 8.80 45.79 10.40 43.99 8.80z m46.19 -16.40 c0 -6.20 -0.40 -7 -3 -4.80 -1.60 1.40 -3 4.60 -3 7.20 0 3 1.20 4.80 3 4.80 2.20 0 3 -2.20 3 -7.20z m-39.99 -6.60 c-1.60 -1 -22.39 -7.40 -45.99 -14.40 -23.59 -7 -41.39 -13 -39.39 -13.40 1.80 -0.40 19.20 0.80 38.19 2.40 19.20 1.80 37.39 3.20 40.59 3 6.40 -0.20 -75.58 -17.60 -83.78 -17.80 -4.60 0 -5.60 0.80 -5.60 5 0 2.80 1.20 5 2.60 5 1.60 0 1.80 0.60 0.20 1.60 -2.40 1.60 -5 14.80 -2.60 13.20 1 -0.40 5.80 0.20 10.80 1.40 8.20 2 80.98 15.20 85.98 15.60 1.20 0 0.60 -0.60 -1 -1.60z m49.39 -20.20 c-0.20 -1.60 -3.40 -3.80 -7 -5 -3.40 -1 -6.40 -2.40 -6.40 -3 0 -0.60 2.20 -3.60 4.60 -6.80 4.20 -5.20 4.60 -6.80 2.60 -14.80 -2 -8.60 -2.20 -8.80 -8.60 -7.80 l-6.60 1.20 1.20 -14 1.40 -13.80 -6.20 0 c-6 0 -6.20 -0.40 -7.40 -11 l-1.40 -10.80 -9.80 4.80 -9.80 5 8.20 10.60 c11.80 15.20 27.19 47.99 31.19 65.98 l3.60 15.60 5.40 -6.60 c3 -3.60 5.40 -8 5 -9.60z m-92.38 -26.19 c-55.39 -7 -52.99 -7 -52.99 -0.80 0 4.80 0.20 4.80 21.59 5.60 11.80 0.20 33.59 0.60 48.39 0.80 l26.99 0.20 -43.99 -5.80z m-154.96 -46.59 c21.39 -17 23.19 -19.40 6 -7.60 -15.60 10.60 -36.19 29.79 -50.59 47.19 -4.60 5.60 0 1.80 10.60 -8.80 10.40 -10.40 25.79 -24.39 33.99 -30.79z m326.32 30.99 c0.60 -0.60 -0.40 -8 -2.40 -16.20 -4 -16.80 -3 -17.60 -12.80 9.60 -2.80 8 -5.20 15 -5.20 15.40 0 1 18.40 -7 20.40 -8.80z m-142.37 6 c7 -1 0.20 -2 -28.99 -4 -20.80 -1.60 -40.19 -3.40 -42.79 -4.20 -3 -0.60 11.20 -3 33.99 -5.40 l38.79 -4 -42.79 -0.40 -42.59 -0.20 1.20 6.20 c0.60 3.40 1.20 8 1.20 10 0 3.60 2 3.80 36.59 3.60 20 0 40.39 -0.80 45.39 -1.60z m-44.99 -26.19 l31.99 -5.80 -33.99 0.80 c-18.60 0.40 -32.99 0.40 -31.99 0 1.20 -0.60 16 -4 32.99 -8 l30.99 -7 -19 1 c-10.40 0.60 -26.59 1.40 -35.99 2 l-17 1 21 -5.20 c23.99 -5.80 32.99 -9 21.99 -7.80 -3.80 0.40 -16.80 1.20 -28.99 1.80 l-21.99 1.20 16.60 -4.60 c9 -2.60 16.80 -5.20 17.40 -5.80 1.20 -1 -31.19 0.20 -40.59 1.60 -6.60 1 -6.60 1.20 -3.20 5 1.80 2 4.80 3.80 6.40 3.80 1.80 0 2.40 0.60 1.80 1.20 -2.20 2.20 2.60 8.80 6.20 8.80 2.20 0 2.60 0.60 1.20 1.60 -3.40 2 0.40 10.40 4.60 10.60 2.20 0 2.60 0.60 1.20 1.20 -1.40 0.40 -2.60 2.60 -2.60 4.80 0 5 1.80 4.80 40.99 -2.20z m180.96 -24.99 c0 -10.80 0.20 -11 4.40 -8.80 4.20 2.20 41.59 5.40 41.59 3.40 0 -1.40 -37.79 -88.18 -38.99 -89.18 -0.40 -0.60 -12.40 2 -26.39 5.40 l-25.59 6.40 -13 -12.60 c-21.20 -20.40 -48.99 -34.39 -89.98 -44.99 -17.40 -4.40 -21.39 -4.80 -44.79 -3.60 -38.79 2 -61.59 5.60 -87.58 13.80 l-23.39 7.40 1.20 6.40 c0.60 3.60 1.20 7.20 1.40 8.20 0 1 -8.60 8.20 -19.20 16 -10.60 7.80 -19.20 14.20 -18.80 14.60 0.20 0.20 5.40 -0.40 11.40 -1.80 9.80 -2 12.20 -3.60 20 -13 8.60 -10.40 9 -10.60 18 -9.80 7.40 0.80 10.20 0 15 -3.80 5 -4.20 8 -4.80 20.40 -5 14.20 0 15 -0.20 21.20 -7 3.80 -3.80 8.60 -7 11 -7 2.40 0 11.80 4.20 21.20 9.20 9.40 5 17 8.20 17 7 0 -1.40 -1.80 -6 -4 -10.20 l-4 -8 5.20 0 c8.20 0 21.39 8.80 27.79 18.40 8.60 13.40 13 17.40 20.80 18.80 9.20 1.60 23.59 9.80 26.39 15 1.60 3.20 3.40 4 7.80 3 5 -0.80 6.40 0 10.20 6 l4.20 7 4.60 -4.20 4.60 -4.20 9.60 10.20 c5.40 5.60 13.40 12.60 18 15.20 7.20 4.20 8.40 6 10.60 16 l2.60 11.20 5.60 -5.40 5.40 -5.20 1.20 7.60 c0.80 4.20 1.40 11.40 1.40 16 0 9 0 9 14 11.20 12.20 2 12 2.20 12 -9.60z m-125.97 -3 l0 -12 -5 3.20 c-4.80 3.20 -5.40 3.20 -8 -0.40 -1.60 -2 -3 -2.80 -3.20 -1.80 0 1.20 -0.80 -0.20 -1.60 -3 -1 -3.80 -3 -5.20 -7.60 -5.60 -5.80 -0.60 -5.60 -0.20 9.20 15.40 8.40 8.80 15.40 16 15.80 16.20 0.20 0 0.40 -5.40 0.40 -12z m-121.77 -26.39 c5 -3 10.40 -5.60 12 -5.60 1.60 0 4.20 -1 5.80 -2.20 2.40 -1.60 2.20 -1.80 -1 -1 -17.20 4 -26.99 8 -32.99 13.20 l-7 6 7 -2.40 c3.80 -1.20 11.20 -4.80 16.20 -8z m85.78 5 c-0.20 -2.20 -8 -11.40 -8.80 -10.40 -0.40 0.40 -1.20 3.20 -2 6.40 -1.20 5 -0.80 5.40 4.80 5.40 3.20 0 6 -0.60 6 -1.40z m-21 -10 c2.20 -1.40 5.60 -2.60 7.60 -2.60 2 0 3 -0.80 2.40 -2 -0.60 -1 -7.20 -2 -14.40 -2 -11.40 0 -12.80 0.40 -10.60 3 1.40 1.60 2 5.20 1.60 8 -1.20 5.60 -1 5.60 13.40 -4.40z m-31.99 -6.20 c-1.80 -1.80 -7 1.60 -7 4.80 0 3.20 0.40 3.20 4 -0.20 2.20 -2 3.60 -4 3 -4.60z m-170.96 -5.40 c2 -2.40 2 -3 -0.60 -3 -1.60 0 -3.40 1.40 -4.20 3 -0.60 1.60 -0.40 3 0.60 3 1 0 2.80 -1.40 4.20 -3z m35.39 -8.80 l4.60 -1.20 -4.60 -5.60 -4.40 -5.40 -9.80 7 c-5.40 3.80 -10.20 7.40 -10.80 7.80 -1.20 1.20 18.40 -0.80 24.99 -2.60z m-22.59 -27.99 c2.60 -4.80 2.60 -6.20 0.40 -9.20 -3.20 -4.40 -7.80 -3 -12.40 4 -2.60 4 -2.80 5.60 -0.80 8 4 4.80 9.60 3.60 12.80 -2.80z m170.96 -155.16 c14 -7 23.19 -25.99 21.79 -43.99 -1.60 -18.80 -9.60 -25.39 -26.99 -21.99 -24.39 4.60 -36.39 45.59 -19 65.58 3.80 4.20 16.40 4.60 24.19 0.40z"/>
  <path d="M1882.56 1665.41 c-7.60 -3.40 -14.20 -6.20 -14.60 -6.60 -0.20 -0.40 9.40 -8 21.59 -17.20 21.79 -16.20 21.99 -16.40 31.39 -15.20 5.40 0.60 13 1.40 17.20 1.60 4 0.20 7.40 1 7.20 1.60 0 0.80 -31.39 27.79 -43.99 37.59 l-5 4 -13.80 -5.80z"/>
  <path d="M1695.60 1605.62 c-2.80 -2.20 -4 -4 -2.80 -4 1.20 0 3.80 1.80 5.80 4 4.60 5 3.40 5 -3 0z"/>
  <path d="M1995.33 1241.31 c-6 -10.20 -11 -19.20 -11.40 -20 -0.40 -1 6.80 -1.60 16.20 -1.60 l17 0 9.60 15.60 c5.20 8.40 10.80 17.40 12.40 20 l2.80 4.40 -18 0 -18 0 -10.60 -18.40z"/>
  <path d="M2710.36 1798.38 c-90.58 -9.80 -144.97 -49.79 -166.16 -122.17 -10.80 -37.19 -10.80 -35.19 -10.80 -356.92 l0 -297.53 78.98 -0.40 78.98 -0.60 0.40 307.93 0.60 307.93 4.40 8 c6 11.20 16 20.20 26.59 23.99 9.40 3.40 34.79 4.40 46.19 2 15.20 -3.40 27.39 -12.80 34.99 -26.99 3.60 -6.80 3.80 -18.80 4.40 -314.33 l0.40 -307.53 78.98 0 79.18 0 -0.80 308.33 c-0.60 280.53 -1 309.93 -4 323.52 -13.60 59.99 -39.19 96.98 -83.38 119.77 -34.39 18 -63.99 24.19 -119.97 24.99 -22.59 0.40 -44.59 0.40 -48.99 0z m44.99 -54.79 c2.40 -1.60 1.40 -3.40 -5.80 -10.80 -9.60 -9.80 -12.20 -10 -12.20 -1.20 0 3.80 1.80 7 5.20 9.80 5.80 4.60 8.40 5 12.80 2.20z m9 -10.20 c2.80 -8.60 -9.40 -18.40 -18.40 -14.80 -2.60 0.80 -1.60 3 5.40 10 4.80 5 9.40 9 10.20 9 0.80 0 2.20 -2 2.80 -4.20z m-146.17 -663.24 c0.60 -1 -3 -5.80 -8 -10.60 -7.40 -7.20 -9.20 -8.20 -10.80 -5.80 -2.80 4.40 -2.40 7 2.20 12.80 4 5.20 14.20 7.40 16.60 3.60z m277.93 0 c0.60 -1 -3 -5.80 -8 -10.60 -7.40 -7.20 -9.20 -8.20 -10.80 -5.80 -2.80 4.40 -2.40 7 2.20 12.80 4 5.20 14.20 7.40 16.60 3.60z m-270.74 -12.40 c0 -3.80 -1.80 -7 -5.20 -9.80 -5.80 -4.60 -8.40 -5 -12.80 -2.20 -2.40 1.60 -1.40 3.40 5.80 10.80 9.60 9.80 12.20 10 12.20 1.20z m277.93 0 c0 -3.80 -1.80 -7 -5.20 -9.80 -5.80 -4.60 -8.40 -5 -12.80 -2.20 -2.40 1.60 -1.40 3.40 5.80 10.80 9.60 9.80 12.20 10 12.20 1.20z"/>
  <path d="M3208.25 1798.18 c-4.40 -0.40 -15.60 -2 -24.99 -3.80 -97.38 -17.40 -153.56 -76.78 -165.96 -175.16 -3 -24.39 -2.60 -79.58 0.60 -79.58 2.80 0 139.37 -17.40 148.97 -19 l6.40 -1.20 0 45.59 c0 50.99 1.80 63.39 12.40 82.98 12.40 23.19 32.19 34.79 58.59 34.19 33.39 -0.60 61.59 -22.59 70.18 -54.99 6.20 -23.59 1.60 -59.39 -11.20 -84.98 -14.20 -28.59 -39.19 -49.99 -91.38 -78.38 -12.40 -6.80 -32.79 -17.60 -44.99 -24.39 -65.78 -35.59 -102.18 -69.58 -119.37 -111.37 -12 -29.19 -16.60 -56.39 -16.60 -101.38 0 -54.59 6.20 -88.38 22.39 -121.97 16.60 -34.39 35.39 -53.59 68.98 -69.98 33.79 -16.60 70.58 -23.59 124.97 -23.59 53.79 0 93.78 8.80 127.17 27.79 30.19 17.20 48.59 36.99 64.98 69.78 16.60 33.39 23.79 71.78 23.79 125.97 l0 26.79 -6.40 1.20 c-11.40 1.80 -136.57 19 -139.17 19 -1.80 0 -2.40 -11.60 -2.40 -48.79 0 -43.79 -0.40 -50.19 -4.20 -62.19 -5.40 -17.60 -19.40 -32.59 -35.79 -38.19 -22.39 -7.40 -51.79 -3 -65.58 9.80 -13.40 12.40 -20.80 39.39 -20.80 75.38 -0.20 58.79 19 81.38 104.38 123.97 80.78 40.39 114.77 63.39 140.57 95.78 31.19 39.19 43.39 85.98 40.79 156.16 -5.20 134.57 -53.99 190.76 -177.76 203.95 -18.20 1.80 -70.38 2.20 -88.58 0.60z m-114.97 -218.55 c2.40 -1.60 1.40 -3.40 -5.80 -10.80 -9.60 -9.80 -12.20 -10 -12.20 -1.20 0 3.80 1.80 7 5.20 9.80 5.80 4.60 8.40 5 12.80 2.20z m9 -10.20 c2.80 -8.60 -9.40 -18.40 -18.40 -14.80 -2.60 0.80 -1.60 3 5.40 10 4.80 5 9.40 9 10.20 9 0.80 0 2.20 -2 2.80 -4.20z m293.73 -315.33 c0.60 -1 -3 -5.80 -8 -10.60 -7.40 -7.20 -9.20 -8.20 -10.80 -5.80 -2.80 4.40 -2.40 7 2.20 12.80 4 5.20 14.20 7.40 16.60 3.60z m7.20 -12.40 c0 -3.80 -1.80 -7 -5.20 -9.80 -5.80 -4.60 -8.40 -5 -12.80 -2.20 -2.40 1.60 -1.40 3.40 5.80 10.80 9.60 9.80 12.20 10 12.20 1.20z"/>
  <path d="M831.81 1405.27 l0 -384.51 135.37 1.20 c130.97 1 136.17 1.20 155.56 5.60 40.79 9.20 68.38 23.19 92.18 46.99 23.79 23.79 36.99 50.19 45.99 91.18 3.40 15.40 3.80 26.79 3.80 116.97 0 90.18 -0.40 101.58 -3.80 116.97 -9.20 41.79 -22.19 67.38 -46.99 91.98 -14.60 14.60 -20.40 18.80 -38.19 27.59 -38.79 19 -68.98 24.39 -138.37 24.39 l-47.59 0 0 122.97 0 122.97 -78.98 0 -78.98 0 0 -384.31z m29.39 370.71 c1.80 -1.20 -0.40 -4.40 -7.20 -11.20 -8.80 -8.60 -10 -9.20 -11 -5.60 -3.20 9.80 10 21.99 18.20 16.80z m8.60 -12.60 c0 -3.20 -1.80 -7.60 -4 -9.80 -3.80 -3.80 -13.80 -5.40 -16.80 -2.60 -1.60 1.80 17 20.80 19.20 19.40 0.80 -0.60 1.60 -3.60 1.60 -7z m208.95 -351.32 c12.20 -5.60 18 -11 23.59 -21.39 4.40 -7.80 4.40 -10.20 5 -103.78 0.60 -107.57 0.60 -108.37 -13.20 -121.77 -13.60 -13.20 -22.99 -15.40 -66.38 -15.40 l-37.99 0 0 134.17 0 134.17 39.59 -0.80 c35.99 -0.60 40.19 -1 49.39 -5.20z m-217.55 -353.92 c1.80 -1.20 -0.40 -4.40 -7.20 -11.20 -8.80 -8.60 -10 -9.20 -11 -5.60 -3.20 9.80 10 21.99 18.20 16.80z m8.60 -12.60 c0 -3.20 -1.80 -7.60 -4 -9.80 -3.80 -3.80 -13.80 -5.40 -16.80 -2.60 -1.60 1.80 17 20.80 19.20 19.40 0.80 -0.60 1.60 -3.60 1.60 -7z"/>
  <path d="M2310.46 1787.38 c-28.39 -4.20 -52.59 -15.60 -69.98 -32.99 -18 -17.80 -29.19 -41.39 -37.59 -78.78 -4.20 -18.80 -4.20 -21.20 -4.80 -336.32 l-0.80 -317.53 79.18 0 78.98 0 0.40 305.53 0.60 305.33 4.20 8 c10.60 19.80 15.40 21 77.78 21 l50.99 0 0 63.99 0 63.99 -83.38 -0.20 c-45.99 -0.20 -88.98 -1 -95.58 -2z m138.37 -41.39 c1.80 -1.20 -0.40 -4.40 -7.20 -11.20 -8.80 -8.60 -10 -9.20 -11 -5.60 -3.20 9.80 10 21.99 18.20 16.80z m8.60 -12.60 c0 -3.20 -1.80 -7.60 -4 -9.80 -3.80 -3.80 -13.80 -5.40 -16.80 -2.60 -1.60 1.80 17 20.80 19.20 19.40 0.80 -0.60 1.60 -3.60 1.60 -7z m-175.96 -675.64 c2.40 -1.60 1.40 -3.40 -5.80 -10.80 -9.60 -9.80 -12.20 -10 -12.20 -1.20 0 3.80 1.80 7 5.20 9.80 5.80 4.60 8.40 5 12.80 2.20z m9 -10.20 c2.80 -8.60 -9.40 -18.40 -18.40 -14.80 -2.60 0.80 -1.60 3 5.40 10 4.80 5 9.40 9 10.20 9 0.80 0 2.20 -2 2.80 -4.20z"/>
  <path d="M432.30 1563.83 c-20.20 -7 -33.99 -22.39 -39.59 -44.39 -2.80 -10.80 -3 -14.80 -1 -25.99 2.40 -12.40 8.40 -25.79 11.60 -25.79 1 0 21.39 19.80 45.39 43.79 l43.79 43.79 -5.20 3.40 c-14 9.20 -37.19 11.40 -54.99 5.20z"/>
  <path d="M3819.70 1564.03 c-20.20 -7.20 -32.79 -19.80 -39.39 -38.99 -5.80 -17 -2.60 -49.19 4.60 -46.39 1.80 0.60 26.19 15.40 54.59 32.59 l51.19 31.39 -7 7.40 c-14.80 15.20 -43.19 21.39 -63.99 14z"/>
  <path d="M457.29 1500.05 c-23.79 -23.79 -43.39 -43.99 -43.39 -44.79 0 -0.80 4.80 -4 10.60 -7 9.20 -5 12.60 -5.60 29.39 -5.60 16.80 0 20.20 0.60 29.19 5.40 12.80 6.80 25.59 21 29.59 32.99 1.80 5.40 3.20 16 3.20 24.59 0 12.80 -1 17 -5.40 25.99 -3.20 6 -6.60 11 -7.60 11.40 -1.20 0.40 -21.59 -19 -45.59 -42.99z"/>
  <path d="M3855.10 1503.05 c-23.59 -14.60 -47.99 -29.39 -53.99 -33.19 l-11 -6.80 7.80 -6.60 c24.19 -20.80 64.58 -19.40 87.18 3.20 14.80 14.80 21.79 41.99 15.60 61.39 l-2.60 8.40 -42.99 -26.39z"/>
  <path d="M3507.78 1122.54 c-4.60 -1.60 -12.40 -6.60 -17.40 -11 -31.19 -27.59 -24.99 -79.98 11.80 -98.78 10.20 -5.20 13.80 -6 27.79 -6 13 0 18.20 1 25.99 4.80 21.20 10.40 33.19 29.59 33.19 53.39 0 17.80 -4.20 30.19 -13.80 41.19 -11.60 13 -23.79 18.40 -43.19 19 -10.40 0.40 -18.80 -0.60 -24.39 -2.60z m44.99 -11.60 c8.40 -4.40 21.59 -19.60 24.59 -28.39 13.40 -39.99 -27.59 -79.18 -65.78 -62.79 -20.20 8.60 -34.59 32.79 -31.59 52.39 2.40 15.40 14.20 31.79 27.79 38.99 12.60 6.60 31.99 6.40 44.99 -0.20z"/>
  <path d="M3515.18 1066.75 l0 -30.99 12.80 0 c16.60 0 23.19 4.60 23.19 16 0 5.40 -1.40 9 -4.40 11.80 -3.40 3.40 -3.80 4.60 -1.80 7 2.20 2.60 8.20 21.39 8.20 25.79 0 0.80 -1.60 1.40 -3.60 1.40 -2.60 0 -4.60 -3.20 -7.40 -12.40 -3.20 -10 -5 -13 -9.20 -14.40 -9.60 -3.20 -11.80 -0.80 -11.80 13.80 0 10.20 -0.60 13 -3 13 -2.60 0 -3 -4.80 -3 -30.99z m24.79 -6.20 c1.80 -1.60 3.40 -4.20 3.40 -5.40 1 -9 -3.80 -13.40 -14.60 -13.40 l-7.60 0 0 11 0 11 7.80 0 c4.60 0 9.20 -1.40 11 -3.20z"/>
 </g>
</svg>